<svg width="70" height="70" viewBox="0 0 70 70" fill="none" xmlns="http://www.w3.org/2000/svg">
<g id="tdesign:icon">
<path id="Vector" d="M64.1676 5.8335H23.3342V20.8543C19.4628 21.6456 15.8779 23.4709 12.9605 26.1361C10.0432 28.8013 7.90221 32.207 6.76511 35.9914C5.62802 39.7758 5.53724 43.7975 6.50243 47.6294C7.46762 51.4612 9.45273 54.96 12.2469 57.7542C15.041 60.5483 18.5399 62.5334 22.3717 63.4986C26.2035 64.4638 30.2253 64.3731 34.0096 63.236C37.794 62.0989 41.1997 59.9579 43.865 57.0405C46.5302 54.1231 48.3554 50.5383 49.1467 46.6668H64.1676V5.8335ZM49.5376 40.8335C49.1842 35.5473 46.9246 30.5689 43.1784 26.8227C39.4321 23.0764 34.4538 20.8169 29.1676 20.4635V11.6668H58.3342V40.8335H49.5376ZM27.7092 26.2502C31.9637 26.2502 36.044 27.9403 39.0524 30.9487C42.0608 33.9571 43.7509 38.0373 43.7509 42.2918C43.7509 46.5463 42.0608 50.6266 39.0524 53.635C36.044 56.6434 31.9637 58.3335 27.7092 58.3335C23.4547 58.3335 19.3745 56.6434 16.3661 53.635C13.3577 50.6266 11.6676 46.5463 11.6676 42.2918C11.6676 38.0373 13.3577 33.9571 16.3661 30.9487C19.3745 27.9403 23.4547 26.2502 27.7092 26.2502Z" fill="#E8C14A"/>
</g>
</svg>
